<svg width="53" height="54" viewBox="0 0 53 54" fill="none" xmlns="http://www.w3.org/2000/svg">
<g clip-path="url(#clip0_38_1003)">
<rect y="0.599976" width="53" height="53" rx="26.5" fill="white"/>
<path d="M29.7132 38.3132C34.942 37.9657 39.107 33.7416 39.4497 28.4387C39.5167 27.4009 39.5167 26.3262 39.4497 25.2884C39.107 19.9855 34.942 15.7615 29.7132 15.4139C27.9294 15.2953 26.067 15.2956 24.2867 15.4139C19.058 15.7615 14.893 19.9855 14.5503 25.2884C14.4832 26.3262 14.4832 27.4009 14.5503 28.4387C14.6751 30.3701 15.5293 32.1583 16.5349 33.6683C17.1188 34.7254 16.7334 36.0448 16.1253 37.1973C15.6868 38.0283 15.4675 38.4438 15.6435 38.7439C15.8196 39.0441 16.2128 39.0537 16.9993 39.0728C18.5546 39.1107 19.6033 38.6697 20.4358 38.0558C20.908 37.7077 21.1441 37.5336 21.3068 37.5136C21.4695 37.4936 21.7897 37.6254 22.43 37.8892C23.0055 38.1262 23.6737 38.2724 24.2867 38.3132C26.067 38.4316 27.9294 38.4318 29.7132 38.3132Z" stroke="#FF9500" stroke-width="2.5" stroke-linejoin="round"/>
<path d="M22 23.7518H27M27 23.7518H30.2142M27 23.7518V22.2001M32 23.7518H30.2142M30.2142 23.7518C29.6281 25.8738 28.4009 27.8799 27 29.6428M27 29.6428C25.84 31.1026 24.561 32.3957 23.4286 33.4501M27 29.6428C26.2858 28.7949 25.2857 27.4231 25 26.8023M27 29.6428L29.1429 31.8983" stroke="#FF9500" stroke-width="2.5" stroke-linecap="round" stroke-linejoin="round"/>
</g>
<defs>
<clipPath id="clip0_38_1003">
<rect y="0.599976" width="53" height="53" rx="26.5" fill="white"/>
</clipPath>
</defs>
</svg>
