<svg width="53" height="54" viewBox="0 0 53 54" fill="none" xmlns="http://www.w3.org/2000/svg">
<g clip-path="url(#clip0_38_1012)">
<rect y="0.0999756" width="53" height="53" rx="26.5" fill="white"/>
<path d="M25.1878 15.4501C20.3723 15.4587 17.8506 15.577 16.2391 17.1885C14.5 18.9276 14.5 21.7266 14.5 27.3247C14.5 32.9228 14.5 35.7218 16.2391 37.4609C17.9782 39.2001 20.7773 39.2001 26.3754 39.2001C31.9734 39.2001 34.7725 39.2001 36.5116 37.4609C38.1231 35.8494 38.2414 33.3278 38.25 28.5123" stroke="#FF9500" stroke-width="2.5" stroke-linecap="round" stroke-linejoin="round"/>
<path d="M25.8196 27.9501C24.9154 16.533 33.003 13.2945 39.4757 14.4056C39.7371 18.1893 37.8857 19.6061 34.36 20.2604C35.0409 20.9718 36.2439 21.867 36.1141 22.9861C36.0217 23.7824 35.4809 24.1731 34.3994 24.9546C32.029 26.6671 29.2831 27.7469 25.8196 27.9501Z" stroke="#FF9500" stroke-width="2.5" stroke-linecap="round" stroke-linejoin="round"/>
<path d="M23.25 32.9501C25.75 26.0751 28.2005 23.7455 30.75 21.7001" stroke="#FF9500" stroke-width="2.5" stroke-linecap="round" stroke-linejoin="round"/>
</g>
<defs>
<clipPath id="clip0_38_1012">
<rect y="0.0999756" width="53" height="53" rx="26.5" fill="white"/>
</clipPath>
</defs>
</svg>
