<svg xmlns="http://www.w3.org/2000/svg" width="103" height="17" viewBox="0 0 103 17" fill="none">
  <g clip-path="url(#clip0_38_1079)">
    <path d="M6.59447 5.132L8.93347 0.451004C9.00158 0.31507 9.10627 0.200839 9.23577 0.121163C9.36526 0.0414865 9.51442 -0.000473238 9.66647 4.02647e-06C9.81841 4.72323e-05 9.96738 0.0421004 10.0969 0.121516C10.2264 0.200931 10.3315 0.314615 10.4005 0.450004L12.7385 5.132L17.9675 5.887C18.1178 5.90801 18.2593 5.97065 18.3759 6.06784C18.4926 6.16503 18.5797 6.2929 18.6275 6.437C18.6747 6.58088 18.6802 6.73518 18.6434 6.88206C18.6066 7.02894 18.529 7.1624 18.4195 7.267L14.6375 10.909L15.5305 16.053C15.6445 16.713 14.9425 17.216 14.3425 16.905L9.66647 14.475L4.99047 16.905C4.39047 17.217 3.68847 16.714 3.80347 16.052L4.69647 10.908L0.913467 7.266C0.804696 7.16074 0.727762 7.02698 0.691474 6.88003C0.655186 6.73308 0.661011 6.57889 0.708281 6.43509C0.755551 6.2913 0.842356 6.16372 0.958759 6.06697C1.07516 5.97021 1.21646 5.90819 1.36647 5.888L6.59447 5.132Z" fill="#FF9500"/>
    <path d="M27.5945 5.13201L29.9335 0.451006C30.0015 0.314998 30.1062 0.200703 30.2357 0.121014C30.3652 0.0413253 30.5144 -0.000586635 30.6665 6.20309e-06C30.8184 4.94089e-05 30.9674 0.0421026 31.0969 0.121518C31.2264 0.200933 31.3315 0.314617 31.4005 0.450006L33.7385 5.13201L38.9675 5.88701C39.1178 5.90801 39.2593 5.97065 39.3759 6.06784C39.4926 6.16503 39.5797 6.2929 39.6275 6.43701C39.6747 6.58088 39.6802 6.73518 39.6434 6.88206C39.6066 7.02894 39.529 7.16241 39.4195 7.26701L35.6375 10.909L36.5305 16.053C36.6445 16.713 35.9425 17.216 35.3425 16.905L30.6665 14.475L25.9905 16.905C25.3905 17.217 24.6885 16.714 24.8025 16.052L25.6955 10.908L21.9135 7.26601C21.8047 7.16075 21.7278 7.02698 21.6915 6.88004C21.6552 6.73309 21.661 6.57889 21.7083 6.43509C21.7556 6.2913 21.8424 6.16373 21.9588 6.06697C22.0752 5.97022 22.2165 5.90819 22.3665 5.88801L27.5945 5.13201Z" fill="#FF9500"/>
    <path d="M48.5945 5.13201L50.9335 0.451006C51.0015 0.314998 51.1062 0.200703 51.2357 0.121014C51.3652 0.0413253 51.5144 -0.000586635 51.6665 6.20309e-06C51.8184 4.94089e-05 51.9674 0.0421026 52.0969 0.121518C52.2264 0.200933 52.3315 0.314617 52.4005 0.450006L54.7385 5.13201L59.9675 5.88701C60.1178 5.90801 60.2593 5.97065 60.3759 6.06784C60.4926 6.16503 60.5797 6.2929 60.6275 6.43701C60.6747 6.58088 60.6802 6.73518 60.6434 6.88206C60.6066 7.02894 60.529 7.16241 60.4195 7.26701L56.6375 10.909L57.5305 16.053C57.6445 16.713 56.9425 17.216 56.3425 16.905L51.6665 14.475L46.9905 16.905C46.3905 17.217 45.6885 16.714 45.8025 16.052L46.6965 10.908L42.9135 7.26601C42.8047 7.16075 42.7278 7.02698 42.6915 6.88004C42.6552 6.73309 42.661 6.57889 42.7083 6.43509C42.7556 6.2913 42.8424 6.16373 42.9588 6.06697C43.0752 5.97022 43.2165 5.90819 43.3665 5.88801L48.5945 5.13201Z" fill="#FF9500"/>
    <path d="M69.5945 5.13201L71.9335 0.451006C72.0015 0.314998 72.1062 0.200703 72.2357 0.121014C72.3652 0.0413253 72.5144 -0.000586635 72.6665 6.20309e-06C72.8184 4.94089e-05 72.9674 0.0421026 73.0969 0.121518C73.2264 0.200933 73.3315 0.314617 73.4005 0.450006L75.7385 5.13201L80.9675 5.88701C81.1178 5.90801 81.2593 5.97065 81.3759 6.06784C81.4926 6.16503 81.5797 6.2929 81.6275 6.43701C81.6747 6.58088 81.6802 6.73518 81.6434 6.88206C81.6066 7.02894 81.529 7.16241 81.4195 7.26701L77.6375 10.909L78.5305 16.053C78.6445 16.713 77.9425 17.216 77.3425 16.905L72.6665 14.475L67.9905 16.905C67.3905 17.217 66.6885 16.714 66.8025 16.052L67.6955 10.908L63.9135 7.26601C63.8047 7.16075 63.7278 7.02698 63.6915 6.88004C63.6552 6.73309 63.661 6.57889 63.7083 6.43509C63.7556 6.2913 63.8424 6.16373 63.9588 6.06697C64.0752 5.97022 64.2165 5.90819 64.3665 5.88801L69.5945 5.13201Z" fill="#FF9500"/>
    <path d="M90.5945 5.13201L92.9335 0.451006C93.0015 0.314998 93.1062 0.200703 93.2357 0.121014C93.3652 0.0413253 93.5144 -0.000586635 93.6665 6.20309e-06C93.8184 4.94089e-05 93.9674 0.0421026 94.0969 0.121518C94.2264 0.200933 94.3315 0.314617 94.4005 0.450006L96.7385 5.13201L101.967 5.88701C102.118 5.90835 102.259 5.97111 102.376 6.06825C102.492 6.16539 102.579 6.29308 102.627 6.43701C102.675 6.58088 102.68 6.73518 102.643 6.88206C102.607 7.02894 102.529 7.16241 102.419 7.26701L98.6375 10.909L99.5305 16.053C99.6445 16.713 98.9425 17.216 98.3425 16.905L93.6665 14.475L88.9905 16.905C88.3905 17.217 87.6885 16.714 87.8025 16.052L88.6955 10.908L84.9135 7.26601C84.8047 7.16075 84.7278 7.02698 84.6915 6.88004C84.6552 6.73309 84.661 6.57889 84.7083 6.43509C84.7556 6.2913 84.8424 6.16373 84.9588 6.06697C85.0752 5.97022 85.2165 5.90819 85.3665 5.88801L90.5945 5.13201Z" fill="#FF9500"/>
  </g>
  <defs>
    <clipPath id="clip0_38_1079">
      <rect width="102" height="17" fill="white" transform="translate(0.666992)"/>
    </clipPath>
  </defs>
</svg>