<svg width="53" height="54" viewBox="0 0 53 54" fill="none" xmlns="http://www.w3.org/2000/svg">
<g clip-path="url(#clip0_38_1031)">
<rect y="0.100098" width="53" height="53" rx="26.5" fill="white"/>
<g clip-path="url(#clip1_38_1031)">
<path d="M21.7852 26.9421H21.2115C19.3568 26.9421 18.4295 26.9421 18.0342 26.3306C17.6389 25.7192 18.0155 24.8673 18.7688 23.1636L21.0333 18.0416C21.7182 16.4926 22.0606 15.7181 22.725 15.2841C23.3893 14.8501 24.2324 14.8501 25.9187 14.8501H28.5305C30.579 14.8501 31.6032 14.8501 31.9895 15.5193C32.3759 16.1885 31.8677 17.0824 30.8514 18.8704L29.5115 21.2274C29.0062 22.1163 28.7536 22.5607 28.7571 22.9245C28.7617 23.3973 29.0131 23.8328 29.4192 24.0713C29.7317 24.255 30.2409 24.255 31.2592 24.255C32.5466 24.255 33.1904 24.255 33.5256 24.4778C33.9611 24.7673 34.1891 25.2853 34.1092 25.8041C34.0477 26.2033 33.6147 26.6821 32.7487 27.6397L25.8299 35.2905C24.4709 36.7932 23.7914 37.5446 23.3351 37.3068C22.8788 37.069 23.0979 36.0778 23.5361 34.0953L24.3946 30.2121C24.7282 28.7026 24.8951 27.9478 24.4939 27.445C24.0926 26.9421 23.3235 26.9421 21.7852 26.9421Z" stroke="#FF9500" stroke-width="2.5" stroke-linejoin="round"/>
</g>
</g>
<defs>
<clipPath id="clip0_38_1031">
<rect y="0.100098" width="53" height="53" rx="26.5" fill="white"/>
</clipPath>
<clipPath id="clip1_38_1031">
<rect x="11" y="11.1001" width="31" height="31" rx="4" fill="white"/>
</clipPath>
</defs>
</svg>
